<svg aria-hidden="true" focusable="false" data-prefix="fas" data-icon="chevron-circle-up" class="svg-inline--fa fa-chevron-circle-up fa-w-16" role="img" xmlns="http://www.w3.org/2000/svg" viewBox="0 0 512 512"><path fill="white" d="M 8 257 C 8 120.6 119 10 256 10 s 248 110.6 248 247 s -111 247 -248 247 S 8 393.4 8 257 z m 231 -113.4 L 103.5 278.5 c -9.4 9.4 -9.4 24.5 0 33.8 l 17 16.9 c 9.4 9.4 24.6 9.4 33.9 0 L 256 228 l 101.6 101.2 c 9.4 9.4 24.6 9.4 33.9 0 l 17 -16.9 c 9.4 -9.4 9.4 -24.5 0 -33.8 L 273 143.6 c -9.4 -9.4 -24.6 -9.4 -34 0 z"></path>
    <rect x="227" y="77" width="7" height="60" fill="rgb(255, 255, 255)"/>
</svg>