<?xml version="1.0" encoding="UTF-8"?> <svg xmlns="http://www.w3.org/2000/svg" xmlns:xlink="http://www.w3.org/1999/xlink" viewBox="0 0 300 300"><defs><style>.cls-1,.cls-12,.cls-13,.cls-8{fill:none;}.cls-2{isolation:isolate;}.cls-3{opacity:0.6;}.cls-4{fill:#ef6c64;}.cls-14,.cls-5{fill:#241f20;}.cls-6{fill:#e5524f;}.cls-7{fill:#f8b4ae;}.cls-8{stroke:#f8b4ae;stroke-width:4px;}.cls-28,.cls-8{stroke-linejoin:round;}.cls-9{fill:#fff;}.cls-10{fill:#0094c3;}.cls-11{fill:#123a61;}.cls-12{stroke:#ef6c64;}.cls-12,.cls-13,.cls-20{stroke-miterlimit:10;}.cls-12,.cls-13{stroke-width:9px;}.cls-13{stroke:#e5524f;}.cls-14{opacity:0.1;}.cls-15,.cls-28{fill:#f06c64;}.cls-16{fill:#9c654c;}.cls-17{clip-path:url(#clip-path);}.cls-18{fill:#ef6260;}.cls-19{clip-path:url(#clip-path-2);}.cls-20{fill:#221f1f;stroke:#68676b;stroke-width:0.5px;}.cls-21{clip-path:url(#clip-path-3);}.cls-22{clip-path:url(#clip-path-4);}.cls-23,.cls-25{fill:#0e385c;}.cls-24{fill:#f2f1e3;}.cls-25,.cls-27{mix-blend-mode:multiply;}.cls-26{clip-path:url(#clip-path-5);}.cls-27{fill:#434243;}.cls-28{stroke:#944140;stroke-linecap:round;stroke-width:2px;}</style><clipPath id="clip-path"><path id="SVGID" class="cls-1" d="M238.9,268.2,213.28,74.5a1.84,1.84,0,0,1,1.61-2l4.76-.61a1.85,1.85,0,0,1,2.09,1.58l25.62,193.69a1.85,1.85,0,0,1-1.61,2.06l-4.77.61A1.85,1.85,0,0,1,238.9,268.2Z"></path></clipPath><clipPath id="clip-path-2"><path id="SVGID-2" data-name="SVGID" class="cls-1" d="M169.77,255.14a17.92,17.92,0,0,1,5.92,2.55c2.24,1.54,2.42,2.52,5.16,4.88a21,21,0,0,0,5.15,3.58c5.19,2,11.68-3,13.36-4.4a5.25,5.25,0,0,1-.32-.91v0c-.3-1.24-2.82-2.32-2.82-2.32-3.13-1.34-4.47-.59-6.43-2.06a9.55,9.55,0,0,1-1.29-1.29,29.56,29.56,0,0,1-4.62-7.46c-.37-.81-1-2.23-1.54-3.61-1.5-4.19-1.4-8-1-14.4.34-5.54.72-10.25,1.05-13.88a78,78,0,0,0-17.49-.54c-.87.07-1.73.16-2.57.26.31,4,.71,7.3,1,9.51,1.07,7.87,1.85,9.21,1.27,12.86a66,66,0,0,1-1.81,7.71,18.8,18.8,0,0,0-1,5.66,17.69,17.69,0,0,0,.25,3.07A24.65,24.65,0,0,1,169.77,255.14Z"></path></clipPath><clipPath id="clip-path-3"><path id="SVGID-3" data-name="SVGID" class="cls-1" d="M82.07,245.24a17.55,17.55,0,0,1,3.62,5c1.09,2.35.77,3.24,1.87,6.5a19.79,19.79,0,0,0,2.5,5.44c3.28,4.19,11,3.18,13.11,2.86a4.5,4.5,0,0,1,.18-.9v-.05c.35-1.16-1.19-3.27-1.19-3.27-1.92-2.62-3.39-2.65-4.28-4.81a9,9,0,0,1-.43-1.68,27.84,27.84,0,0,1-.18-8.37c.08-.85.22-2.34.48-3.71.8-4.18,2.71-7.22,6.16-12.32,3-4.39,5.56-8.07,7.59-10.9a75.35,75.35,0,0,0-14.11-8.92c-.75-.36-1.49-.71-2.23-1-1.7,3.47-3,6.35-3.78,8.31-2.93,7-3,8.47-5.19,11.18A62.29,62.29,0,0,1,81,234a18.12,18.12,0,0,0-3.59,4.15,15.22,15.22,0,0,0-1.28,2.64A23.31,23.31,0,0,1,82.07,245.24Z"></path></clipPath><clipPath id="clip-path-4"><path id="SVGID-4" data-name="SVGID" class="cls-1" d="M110.27,135.44a90.18,90.18,0,0,1,1.32,15.07c0,7.57.07,17.7-4.49,28.29-3.15,7.3-8.71,13.51-19.84,25.92-3,3.37-5.61,6.09-7.4,7.93l39.4,19a106.52,106.52,0,0,0,33.58-49.45,105.43,105.43,0,0,0,4-45.75Z"></path></clipPath><clipPath id="clip-path-5"><path id="SVGID-5" data-name="SVGID" class="cls-1" d="M111.35,134.77c14.29,21,22.56,36.83,27.11,46.41a118.67,118.67,0,0,1,5.68,13.62,143,143,0,0,1,6.75,32.13l44.51-2a232.85,232.85,0,0,0-8.68-51,232.36,232.36,0,0,0-15.34-39.4Z"></path></clipPath></defs><title>1-3-01</title><g class="cls-2"><g id="Layer_1" data-name="Layer 1"><g class="cls-3"><rect class="cls-4" x="183.83" y="135.55" width="11.94" height="7.49" rx="3.71"></rect><circle class="cls-5" cx="176.7" cy="164.31" r="10.77"></circle><path class="cls-4" d="M183.76,142.28a6.45,6.45,0,0,0,5.82-3.66L202.17,116h36.22l8,26.24h1.39a10.09,10.09,0,0,1,10.09,10.09v3.95a10.08,10.08,0,0,1-10.09,10.08H158.1V142.28Z"></path><path class="cls-6" d="M264.1,116H231.61l-16.1,29.41H195.78v21h88.36V142.28H276.9a1.8,1.8,0,0,1-1.69-1.21Z"></path><polygon class="cls-7" points="194.54 139.91 213.87 139.91 223.93 120 205.32 120 194.54 139.91"></polygon><polygon class="cls-7" points="224.64 140.39 234.63 120.16 246.58 120.16 246.58 140.39 224.64 140.39"></polygon><polygon class="cls-7" points="261.11 120.16 268.67 140.39 252.26 140.39 252.26 120.16 261.11 120.16"></polygon><line class="cls-8" x1="245.6" y1="144.03" x2="238.93" y2="144.03"></line><circle class="cls-9" cx="187.86" cy="156.61" r="2.97"></circle><circle class="cls-9" cx="164.66" cy="156.61" r="2.97"></circle><circle class="cls-5" cx="263.14" cy="164.31" r="10.77"></circle><circle class="cls-5" cx="222.07" cy="164.31" r="10.77"></circle><rect class="cls-6" x="222.07" y="135.55" width="11.94" height="7.49" rx="3.71"></rect><rect class="cls-10" x="172.06" y="154.39" width="8.41" height="4.45"></rect><circle class="cls-5" cx="59.86" cy="164.37" r="11.31"></circle><polyline class="cls-4" points="90.37 164.37 31.45 164.37 31.45 92.31 90.37 92.31"></polyline><rect class="cls-6" x="77.41" y="92.31" width="94.68" height="72.05"></rect><rect class="cls-7" x="38.44" y="105.07" width="30.57" height="30.57"></rect><rect class="cls-7" x="87.22" y="106.53" width="20.25" height="20.25"></rect><rect class="cls-7" x="114.62" y="106.53" width="20.25" height="20.25"></rect><rect class="cls-7" x="142.02" y="106.53" width="20.25" height="20.25"></rect><circle class="cls-9" cx="41.75" cy="150.99" r="3.31"></circle><circle class="cls-9" cx="65.9" cy="150.99" r="3.31"></circle><circle class="cls-5" cx="99.14" cy="164.37" r="11.31"></circle><circle class="cls-5" cx="152.15" cy="164.37" r="11.31"></circle><rect class="cls-11" x="77.41" y="137.66" width="94.68" height="4.72"></rect><path class="cls-4" d="M19.77,109.87h8.66a0,0,0,0,1,0,0v11.75a3.61,3.61,0,0,1-3.61,3.61H23.38a3.61,3.61,0,0,1-3.61-3.61V109.87A0,0,0,0,1,19.77,109.87Z"></path><polyline class="cls-12" points="24.08 113.12 24.08 103.44 33.3 103.44"></polyline><polyline class="cls-13" points="68.49 113.12 68.49 103.44 77.72 103.44"></polyline><path class="cls-6" d="M64.2,109.87h8.66a0,0,0,0,1,0,0v11.75a3.61,3.61,0,0,1-3.61,3.61H67.81a3.61,3.61,0,0,1-3.61-3.61V109.87A0,0,0,0,1,64.2,109.87Z"></path></g><path class="cls-14" d="M43.52,294.73c.09,4.79,220.09,6.68,220.26,1.74.09-2.67-63.76-8.58-125.19-8C97,288.87,43.47,292.37,43.52,294.73Z"></path><path class="cls-15" d="M156.56,52.88a112.33,112.33,0,0,1,24.28,24.47,54.91,54.91,0,0,1,28.24-10.68,51.84,51.84,0,0,1,12.23.56l9.94,9.71C229.1,96.43,216.07,112.2,199,116.46c-17.31,4.32-31.59-5-34.11-6.72"></path><path class="cls-16" d="M231.55,65.62A11.67,11.67,0,0,1,238,69.14a11,11,0,0,1,2.3,4l-9.1,4.23-9.75-9.69A13.94,13.94,0,0,1,231.55,65.62Z"></path><rect class="cls-5" x="195.21" y="68.38" width="43.11" height="7.88" rx="3.83"></rect><circle class="cls-5" cx="244.34" cy="276.35" r="18.32"></circle><circle class="cls-5" cx="63.49" cy="276.35" r="18.32"></circle><path class="cls-5" d="M40.3,272.87c4.11-12.89,16.64-20.36,28.06-18.09,8.71,1.73,15.85,8.94,18.31,18.32Z"></path><path class="cls-5" d="M72.2,259h146a1.64,1.64,0,0,1,1.64,1.64v7.13a7.46,7.46,0,0,1-7.46,7.46H72.2a1.64,1.64,0,0,1-1.64-1.64V260.6A1.64,1.64,0,0,1,72.2,259Z"></path><path class="cls-5" d="M224.65,225.57h4.2a2.09,2.09,0,0,1,2.09,2.09V269a8.39,8.39,0,0,1-8.39,8.39h0a0,0,0,0,1,0,0V227.66A2.09,2.09,0,0,1,224.65,225.57Z" transform="translate(135.79 -74.68) rotate(26.46)"></path><g class="cls-17"><path class="cls-5" d="M238.9,268.2,213.28,74.5a1.84,1.84,0,0,1,1.61-2l4.76-.61a1.85,1.85,0,0,1,2.09,1.58l25.62,193.69a1.85,1.85,0,0,1-1.61,2.06l-4.77.61A1.85,1.85,0,0,1,238.9,268.2Z"></path><path class="cls-18" d="M247.11,199.89H221.3Q214,147.44,206.7,95h24.79Q239.3,147.43,247.11,199.89Z"></path></g><ellipse class="cls-5" cx="237.31" cy="72.32" rx="3.42" ry="3.94"></ellipse><ellipse class="cls-5" cx="196.36" cy="72.32" rx="3.42" ry="3.94"></ellipse><path class="cls-11" d="M91.23,22.65c9.42-.53,18.49,3.61,18.49,3.61,5,2.2,5.26,3.41,8.12,4.06,9.58,2.19,16.45-11.51,20.75-9.47,2.71,1.28,3.15,7.93,1.35,13.08-3.63,10.38-17,16.75-28.87,17.59-15.47,1.1-21.66-7.76-34.28-4.06a30.34,30.34,0,0,0-14.43,9.92C67.9,37.45,80,23.28,91.23,22.65Z"></path><g class="cls-19"><path class="cls-15" d="M169.77,255.14a17.92,17.92,0,0,1,5.92,2.55c2.24,1.54,2.42,2.52,5.16,4.88a21,21,0,0,0,5.15,3.58c5.19,2,11.68-3,13.36-4.4a5.25,5.25,0,0,1-.32-.91v0c-.3-1.24-2.82-2.32-2.82-2.32-3.13-1.34-4.47-.59-6.43-2.06a9.55,9.55,0,0,1-1.29-1.29,29.56,29.56,0,0,1-4.62-7.46c-.37-.81-1-2.23-1.54-3.61-1.5-4.19-1.4-8-1-14.4.34-5.54.72-10.25,1.05-13.88a78,78,0,0,0-17.49-.54c-.87.07-1.73.16-2.57.26.31,4,.71,7.3,1,9.51,1.07,7.87,1.85,9.21,1.27,12.86a66,66,0,0,1-1.81,7.71,18.8,18.8,0,0,0-1,5.66,17.69,17.69,0,0,0,.25,3.07A24.65,24.65,0,0,1,169.77,255.14Z"></path></g><path class="cls-20" d="M161.74,259.72c-.07,2.82,0,5.51.09,8l7.62-.06-.5-11.06a14.47,14.47,0,0,1,5.91,2.32,67.34,67.34,0,0,1,6.42,5.92,9.09,9.09,0,0,0,2.83,2.06,9.53,9.53,0,0,0,3.95.75c4.65,0,10.16-2.54,11.22-3,0-.43.07-.88.09-1.36s0-1.06,0-1.54c-.18.13-.44.32-.77.52a11.14,11.14,0,0,1-3.34,1.29,28.49,28.49,0,0,1-5.14,1,12.11,12.11,0,0,1-3.86-.25,15.74,15.74,0,0,1-4.37-2,27.67,27.67,0,0,1-3.09-2.05c-.82-.64-1.49-1.23-2-1.72,0,0-.58-.5-1.09-.85a17.92,17.92,0,0,0-5.92-2.55,24.65,24.65,0,0,0-7.77-.84v0Q161.82,256.92,161.74,259.72Z"></path><g class="cls-21"><path class="cls-15" d="M82.07,245.24a17.55,17.55,0,0,1,3.62,5c1.09,2.35.77,3.24,1.87,6.5a19.79,19.79,0,0,0,2.5,5.44c3.28,4.19,11,3.18,13.11,2.86a4.5,4.5,0,0,1,.18-.9v-.05c.35-1.16-1.19-3.27-1.19-3.27-1.92-2.62-3.39-2.65-4.28-4.81a9,9,0,0,1-.43-1.68,27.84,27.84,0,0,1-.18-8.37c.08-.85.22-2.34.48-3.71.8-4.18,2.71-7.22,6.16-12.32,3-4.39,5.56-8.07,7.59-10.9a75.35,75.35,0,0,0-14.11-8.92c-.75-.36-1.49-.71-2.23-1-1.7,3.47-3,6.35-3.78,8.31-2.93,7-3,8.47-5.19,11.18A62.29,62.29,0,0,1,81,234a18.12,18.12,0,0,0-3.59,4.15,15.22,15.22,0,0,0-1.28,2.64A23.31,23.31,0,0,1,82.07,245.24Z"></path></g><path class="cls-20" d="M73.25,245.11c-1.42,2.29-2.69,4.52-3.82,6.65l6.28,3.65,5-9.33a13.78,13.78,0,0,1,3.73,4.77,62.09,62.09,0,0,1,2.41,8,8.88,8.88,0,0,0,1.32,3.06A9.32,9.32,0,0,0,91,264.43c3.81,2.26,9.58,2.83,10.7,2.94.24-.34.48-.69.72-1.08s.53-.86.75-1.27a6.63,6.63,0,0,1-.88.05,10.77,10.77,0,0,1-3.38-.55,27.57,27.57,0,0,1-4.72-1.64,11.84,11.84,0,0,1-3-2.07A15.14,15.14,0,0,1,88.53,257,27.77,27.77,0,0,1,87,253.82a22.5,22.5,0,0,1-.81-2.38s-.24-.69-.49-1.22a17.55,17.55,0,0,0-3.62-5,23.31,23.31,0,0,0-6-4.45h0C75.15,242.17,74.2,243.6,73.25,245.11Z"></path><g class="cls-22"><path class="cls-23" d="M110.27,135.44a90.18,90.18,0,0,1,1.32,15.07c0,7.57.07,17.7-4.49,28.29-3.15,7.3-8.71,13.51-19.84,25.92-3,3.37-5.61,6.09-7.4,7.93l39.4,19a106.52,106.52,0,0,0,33.58-49.45,105.43,105.43,0,0,0,4-45.75Z"></path><path class="cls-24" d="M132.51,136.18c-4.21,3.62-9.7,4.95-15,5.91-5.53,1-11.16,1.62-16.4,3.74-1.09.44-1.62,2.08-.36,2.74,8.72,4.52,18.77,3,28.19,2.69,4.61-.15,9.32-.07,13.75,1.38a19,19,0,0,1,2.94,1.22c.69.36,2.37,1,2.33,2,0,.69-1,1.15-1.53,1.39a11.51,11.51,0,0,1-3.68.67c-11.57.84-22.49-4.35-33.93-5.05a19.71,19.71,0,0,0-7.75.8c-2.2.78-4.62,2.18-5.32,4.56-1.59,5.38,6.2,6.93,9.74,7.64,11.4,2.3,23.09,2,34.65,1.9,5.84-.07,11.68-.11,17.51.24,3,.18,5.95.45,8.9.89a35.44,35.44,0,0,1,8.11,1.75,3.81,3.81,0,0,1,2.49,2.41,2.49,2.49,0,0,1-1.47,2.67c-2.23,1.4-5.12,2-7.64,2.64a70.73,70.73,0,0,1-17.29,1.76c-11.53-.08-22.91-2.09-34.4-2.8-11.25-.7-22.84-.16-33.34,4.29-1.72.73-5,2.22-4.35,4.7.29,1,1.62,1.93,2.44,2.52a18.23,18.23,0,0,0,3.57,1.9A111.11,111.11,0,0,0,101.16,196c11.56,2.87,23.38,4.51,35.09,6.65,1.29.23,2.59.44,3.85.74.91.22,2.32.55,2.59,1.61a2.62,2.62,0,0,1-1.31,2.49,6.06,6.06,0,0,1-3.71.8,24.59,24.59,0,0,1-2.83-.48c-1.5-.27-3-.46-4.53-.61-2.93-.3-5.88-.43-8.81-.69-5.75-.5-11.15-2.23-16.77-3.43a141.61,141.61,0,0,0-15.19-2.42,45,45,0,0,0-10.24-.28,4.67,4.67,0,0,0-2.82,1,2.26,2.26,0,0,0,.22,3.14,14.46,14.46,0,0,0,3.59,2.65,65.37,65.37,0,0,0,6.06,3.12c4.2,2,8.51,3.58,12.87,5.12,5.66,2,11.27,4.16,16.88,6.3,6.68,2.55,13.35,5.12,20,7.78,2,.8,3.77,1.44,5.53,2.3a4.77,4.77,0,0,1,.63.34c.07.06.57.64.59.36s-.21,0-.46.1a7.32,7.32,0,0,1-.91.18,13.79,13.79,0,0,1-4.66-.25,49.07,49.07,0,0,1-8.17-2.67c-5.3-2.13-10.37-4.77-15.69-6.85-4.87-1.9-11.3-4.18-16.27-1.34-2,1.11-3.44,3.49-2.11,5.66.88,1.43,2.55,2.13,4,2.85,3.23,1.59,6.51,3.08,9.78,4.56q7.4,3.36,14.81,6.62c1.75.77,3.28-1.81,1.52-2.59-5.5-2.43-11-4.87-16.45-7.36-3.18-1.45-6.39-2.87-9.49-4.49-.69-.37-2.15-.95-1.48-1.92s2.6-1.43,3.79-1.55c3.07-.32,6.12.65,9,1.66,6,2.12,11.55,5.09,17.39,7.47a47,47,0,0,0,9,2.93,17.35,17.35,0,0,0,4.49.33c1.34-.11,3-.28,4-1.27,2-2,0-4.48-2-5.42-.92-.44-1.87-.81-2.82-1.2-6.68-2.77-13.45-5.36-20.21-7.95-6.44-2.47-12.89-4.94-19.39-7.27-4.49-1.61-8.94-3.24-13.26-5.27a60,60,0,0,1-6.24-3.32A13.13,13.13,0,0,1,79.32,203c-.15-.13-.56-.4-.38-.35-.21-.06,0-.43,0,0a1.43,1.43,0,0,1-.12.73c-.26.53-.41.15-.11.22-.18,0-.21.06,0,0l.25-.07a9.94,9.94,0,0,1,1.65-.2,45,45,0,0,1,5.57.11A124.43,124.43,0,0,1,102,205.6c6.06,1.21,11.93,3.17,18.09,3.8,3.24.33,6.49.47,9.73.78,1.56.14,3.12.34,4.66.62a21.61,21.61,0,0,0,3.49.52c2.65.05,5.44-.88,6.9-3.22a4.62,4.62,0,0,0-1-6.33c-2.17-1.6-5.38-1.74-7.94-2.2-3.22-.58-6.45-1.13-9.68-1.68-12.75-2.17-25.6-4.38-37.79-8.86-2.65-1-5.41-2-7.3-4.16l.38,1.46c.15-1,1.16-1.31,1.95-1.67,1.23-.55,2.5-1,3.77-1.47a56.13,56.13,0,0,1,7.44-1.95,76.6,76.6,0,0,1,15.42-1.15c10.52.15,20.93,1.85,31.41,2.64s21.38.69,31.5-2.66c2-.68,4.3-1.42,5.8-3.06a5.12,5.12,0,0,0,.8-5.79c-1.07-2.17-3.28-3.28-5.52-3.89a60.75,60.75,0,0,0-7.45-1.41c-21.16-3-43,1.64-63.93-3.73-1.28-.33-4.07-1.06-4.16-2.75-.11-2.1,3.78-3.12,5.27-3.39,5-.9,10.43.37,15.27,1.44,5.12,1.12,10.19,2.47,15.4,3.14a42.16,42.16,0,0,0,7.78.33,13.9,13.9,0,0,0,6.16-1.37c1.67-1,2.92-2.75,2.37-4.74s-2.61-3.09-4.33-3.9a31.37,31.37,0,0,0-12.31-2.7c-8.69-.34-17.6,1.62-26.2-.24a23.43,23.43,0,0,1-5.73-2l-.35,2.74c10.69-4.31,23.57-2.51,32.76-10.42,1.47-1.26-.66-3.37-2.12-2.12Z"></path></g><path class="cls-25" d="M111.47,145.46c.19,2,.39,4.09.58,6.13,7.22,11.89,12.77,20.46,16.62,26.24,1.31,2,3.61,5.38,6.42,10.21,3.57,6.13,6.25,11.55,8.17,15.75q2.91-5.25,5.83-10.5l-27.38-48.41Z"></path><g class="cls-26"><path class="cls-23" d="M111.35,134.77c14.29,21,22.56,36.83,27.11,46.41a118.67,118.67,0,0,1,5.68,13.62,143,143,0,0,1,6.75,32.13l44.51-2a232.85,232.85,0,0,0-8.68-51,232.36,232.36,0,0,0-15.34-39.4Z"></path><path class="cls-24" d="M124.74,127.59c-.63,6.25-4.24,11.61-7.95,16.48-3.87,5.09-8.14,10-10.88,15.8a1.52,1.52,0,0,0,1.7,2.2c13-3.6,20.67-15.64,30.5-23.89a36.55,36.55,0,0,1,8-5.24c1.34-.63,8.14-3.59,7.77-.33-.21,1.78-1.58,3.25-2.73,4.5a42.64,42.64,0,0,1-4.27,4,74.46,74.46,0,0,1-9.63,6.49c-6.75,4-13.82,7.51-19.83,12.59-3,2.5-5.78,5.72-6.47,9.65a5.59,5.59,0,0,0,1.42,5.27,5.74,5.74,0,0,0,4.7,1.16c3.68-.5,7.11-2.93,10.18-4.89a119,119,0,0,0,9.79-7c6.36-5.06,12.27-10.64,18.18-16.2S167.08,137,173.48,132a105.23,105.23,0,0,1,10-6.93c1.81-1.1,3.75-2.44,5.89-2.77,1.71-.27,3.82.39,4,2.37s-1.27,4.26-2.26,6a59.7,59.7,0,0,1-3.23,5.08,74.53,74.53,0,0,1-8.07,9.49,165.29,165.29,0,0,1-19.08,16c-13.1,9.73-26.94,19.27-36.23,33a48.92,48.92,0,0,0-5.69,10.62c-.55,1.54-.8,3.84.68,5,.79.61,2.3.42,3.23.33a17.86,17.86,0,0,0,3.62-.72A85.87,85.87,0,0,0,139,204c4.1-2,8.12-4.2,12.06-6.5,7.93-4.61,15.59-9.67,23.29-14.65,1.9-1.22,3.79-2.45,5.7-3.66a49,49,0,0,1,6-3.61c1.79-.8,3.63-.45,3.91,1.72.23,1.78-1,3.3-2.2,4.43-3.14,2.88-7.22,4.93-11,6.74-4,1.91-8.11,3.53-12.16,5.3-7.24,3.14-14.46,6.95-19.78,12.92a27.9,27.9,0,0,0-5.67,9.55,1.5,1.5,0,0,0,.69,1.69c7.37,4.37,16.42,1.26,23.84-1.34,8.49-3,16.7-6.7,24.94-10.32,4.19-1.83,8.39-3.65,12.65-5.32q3.12-1.23,6.28-2.34a16.44,16.44,0,0,1,2.71-.87,2.55,2.55,0,0,1,.87,0c.42.09.24-.07.08.29-.79,1.73-2.77,3.17-4.32,4.17a45.32,45.32,0,0,1-5.48,2.87q-6.3,3-12.84,5.34c-8.55,3.16-17.41,5.36-26,8.53-5.84,2.17-11.87,4.5-17.2,7.78-1.11.67-2.93,1.66-3,3.15s1.54,1.91,2.77,1.84c1.94-.1,3.87-.42,5.8-.61,3.51-.36,7-.56,10.57-.61,5.37-.08,10.59.44,15.89-.55A69.74,69.74,0,0,0,196,223.07q3-1.53,5.92-3.23a1.5,1.5,0,0,0-1.52-2.59,84.89,84.89,0,0,1-20.29,8.95,44.75,44.75,0,0,1-13.19,1.29,139.91,139.91,0,0,0-19.84,1c-.71.08-1.43.18-2.14.2h-.35c-.23,0-.16.05-.11,0s.15.07,0,0a1.34,1.34,0,0,1,.89,1.21,1.64,1.64,0,0,1-.18.61s-.12.1.09-.09l.27-.24c.24-.21-.09.05.21-.16a22.18,22.18,0,0,1,2.28-1.41c13.85-7.79,29.67-10.77,44.35-16.49,4.2-1.63,8.34-3.41,12.39-5.38,3.37-1.65,7.08-3.83,9-7.22a3.09,3.09,0,0,0-.77-4.26c-1.41-.89-3.26-.55-4.74-.05-4.17,1.39-8.26,3-12.32,4.69-8.26,3.43-16.37,7.24-24.66,10.61-4.14,1.68-8.33,3.25-12.59,4.6-3.83,1.21-7.82,2.27-11.87,2a12.44,12.44,0,0,1-5.5-1.71L142,217c3-8.62,10.86-14.29,18.7-18.2,9-4.49,18.88-7.31,27.07-13.3,3.35-2.45,6.73-6.36,4.5-10.72a5,5,0,0,0-5.16-2.65c-2.59.33-4.86,2.11-7,3.47-9,5.65-17.75,11.61-26.83,17.09-5.07,3.06-10.23,6-15.54,8.58-2.71,1.32-5.46,2.58-8.25,3.72s-5.89,2.36-9.09,2.06l1.29.74c-.76-1,.08-2.47.54-3.48.65-1.45,1.37-2.88,2.14-4.28a62.79,62.79,0,0,1,4.8-7.29A90.41,90.41,0,0,1,141.31,180c9.07-8,19.2-14.65,28.67-22.15,9.25-7.33,18.07-15.62,23.87-26,1.47-2.62,3.27-5.85,2.12-8.92-1-2.57-3.8-3.86-6.43-3.64-3,.25-5.77,2.06-8.3,3.64s-4.87,3.19-7.21,4.93c-9.52,7.09-17.94,15.47-26.64,23.52-4.28,4-8.65,7.87-13.25,11.47a81.59,81.59,0,0,1-14.67,9.6c-1.69.81-5.46,2-5.67-1-.19-2.8,2-5.57,3.86-7.42,4-4,9-6.93,13.89-9.72a160.51,160.51,0,0,0,14.6-8.89,48.74,48.74,0,0,0,6.47-5.52c1.79-1.86,3.71-4,4.17-6.59a4.28,4.28,0,0,0-4-5.23c-2.35-.16-4.89.82-7,1.72a41.45,41.45,0,0,0-11.62,7.82c-7,6.3-12.85,14.18-21.12,18.91a26.82,26.82,0,0,1-6.25,2.63l1.69,2.21c5.54-11.78,17.86-20.14,19.24-33.8.19-1.91-2.81-1.9-3,0Z"></path></g><path class="cls-15" d="M91.16,147.25C98.4,81.68,120.46,35.7,139.1,35.69S179.9,81.79,187,147.8Z"></path><path class="cls-27" d="M124,69.06l61.82,46.37a36.93,36.93,0,0,1-6.41,4.95c-15.07,9.18-43,11.1-56-6.7C114.72,101.71,115,83.88,124,69.06Z"></path><path class="cls-28" d="M130.61,56.21c-13.39,15-17.06,35-9.28,49.35,11.07,20.45,40.14,19.74,55.86,15.36,30.85-8.59,40.4-40.36,41-42.37L210,67.15a49.36,49.36,0,0,0-28.39,0,48.73,48.73,0,0,0-18.39,10.47c-.49-2-1-4-1.42-6.1q-.45-2-.87-4"></path><path class="cls-16" d="M225.84,66.22a7.76,7.76,0,0,1,3,5.61l-10.43,6L210,67.15a8.94,8.94,0,0,1,4.38-3.7,7.11,7.11,0,0,1,3.72-.46,6.93,6.93,0,0,1,3.73,1.86A7.31,7.31,0,0,1,225.84,66.22Z"></path><circle class="cls-16" cx="139.45" cy="26.66" r="11.89"></circle><path class="cls-5" d="M150.34,24.94a2,2,0,0,0,2-2.37,13.42,13.42,0,0,0-3.81-7.18l0,0A13.45,13.45,0,0,0,128,32.52a2,2,0,0,0,3.13.28c3.51-.9,4.83-2.3,5.35-3.48a7.91,7.91,0,0,1,1.88-3.44,5.47,5.47,0,0,1,1.47-.94Z"></path><path class="cls-5" d="M140.39,37.3a11.26,11.26,0,0,1-3.13-.93c.31-3.55.63-7.1.94-10.64L135.7,27l-.63,8.38A12.6,12.6,0,0,1,131.32,32l-2.51.94a13.78,13.78,0,0,0,3,3,12.78,12.78,0,0,0,8.29,2.66,12.13,12.13,0,0,0,5.47-1.72A11.33,11.33,0,0,1,140.39,37.3Z"></path><g id="White_Logo" data-name="White Logo"><path id="voi_plain_white" data-name="voi plain white" class="cls-9" d="M135.79,19.19l-1.07,2.54H134l-1.06-2.54h.76l.7,1.73.72-1.73Zm1.67,2.57a1.52,1.52,0,0,1-.71-.17,1.17,1.17,0,0,1-.5-.46,1.36,1.36,0,0,1,0-1.35,1.26,1.26,0,0,1,.5-.47,1.68,1.68,0,0,1,1.43,0,1.26,1.26,0,0,1,.68,1.14,1.28,1.28,0,0,1-.18.68,1.17,1.17,0,0,1-.5.46A1.53,1.53,0,0,1,137.46,21.76Zm0-.6a.65.65,0,0,0,.47-.19.73.73,0,0,0,.18-.52.72.72,0,0,0-.18-.51.61.61,0,0,0-.47-.19.6.6,0,0,0-.46.19.73.73,0,0,0-.19.51A.74.74,0,0,0,137,21,.64.64,0,0,0,137.46,21.16Zm2.13-2h.73v2.54h-.73Zm.36-.36a.45.45,0,0,1-.33-.12.39.39,0,0,1,0-.58A.45.45,0,0,1,140,18a.49.49,0,0,1,.33.11.39.39,0,0,1,.13.29.43.43,0,0,1-.13.3.45.45,0,0,1-.33.12Zm1.57,2.93a.44.44,0,0,1-.33-.13.42.42,0,0,1-.13-.33.42.42,0,0,1,.13-.33.44.44,0,0,1,.33-.12.43.43,0,0,1,.32.12.42.42,0,0,1,.13.33.44.44,0,0,1-.45.46Z"></path></g></g></g></svg> 