<?xml version="1.0" encoding="UTF-8"?> <svg xmlns="http://www.w3.org/2000/svg" xmlns:xlink="http://www.w3.org/1999/xlink" viewBox="0 0 300 300"><defs><style>.cls-1,.cls-26,.cls-27,.cls-28,.cls-30,.cls-31,.cls-43,.cls-47,.cls-49{fill:none;}.cls-2{isolation:isolate;}.cls-3{opacity:0.6;}.cls-4,.cls-9{fill:#241f20;}.cls-5{clip-path:url(#clip-path);}.cls-6{fill:#ef6260;}.cls-7{fill:#9c644b;}.cls-8{fill:#f06c63;}.cls-9{opacity:0.1;}.cls-10,.cls-37{fill:#0e3759;}.cls-10,.cls-14,.cls-25,.cls-38,.cls-40{mix-blend-mode:multiply;}.cls-11,.cls-15{fill:#123a61;}.cls-12,.cls-32{fill:#0095c4;}.cls-13{fill:#f36c63;}.cls-14{fill:#434243;}.cls-15{stroke:#0095c4;stroke-width:0.75px;}.cls-15,.cls-26,.cls-27,.cls-30,.cls-31,.cls-41,.cls-42,.cls-49{stroke-linecap:round;}.cls-15,.cls-26,.cls-27,.cls-28,.cls-30,.cls-31,.cls-41,.cls-42,.cls-43{stroke-linejoin:round;}.cls-16{fill:#9c664d;}.cls-17{fill:#fff;}.cls-18{clip-path:url(#clip-path-2);}.cls-19{fill:#0e385c;}.cls-20{fill:#f0efdf;}.cls-21{fill:#0093c2;}.cls-22{clip-path:url(#clip-path-3);}.cls-23,.cls-41{fill:#dcb88b;}.cls-24{fill:#143960;}.cls-25{fill:#68676b;}.cls-26,.cls-28,.cls-30,.cls-31{stroke:#241f20;}.cls-26{stroke-width:17px;}.cls-27{stroke:#ef6260;stroke-width:6px;}.cls-28{stroke-linecap:square;stroke-width:5px;}.cls-29{fill:#4d4c4d;}.cls-30,.cls-43{stroke-width:3px;}.cls-31{stroke-width:7px;}.cls-32{stroke:#f0efdf;}.cls-32,.cls-47,.cls-49{stroke-miterlimit:10;}.cls-33{fill:#d6b991;}.cls-34{fill:#221f1f;}.cls-35{clip-path:url(#clip-path-4);}.cls-36,.cls-42{fill:#f6b4af;}.cls-38{fill:#133a61;}.cls-39{fill:#221e1f;}.cls-40{fill:#67666a;}.cls-41{stroke:#9c654c;stroke-width:0.5px;}.cls-42{stroke:#f2f1e3;}.cls-43{stroke:#f06c64;}.cls-44{fill:#f7b3ad;}.cls-45{fill:#f06c64;}.cls-46{fill:#2091be;}.cls-47{stroke:#f36c63;}.cls-48{fill:#f2f1e3;}.cls-49{stroke:#231f20;stroke-width:2px;}.cls-50{clip-path:url(#clip-path-5);}.cls-51{clip-path:url(#clip-path-6);}.cls-52{fill:#e86e60;}</style><clipPath id="clip-path"><path class="cls-1" d="M85.44,152.48,75.85,74.22a.72.72,0,0,1,.57-.83l1.7-.26a.68.68,0,0,1,.75.64L88.47,152a.73.73,0,0,1-.58.83l-1.7.26A.68.68,0,0,1,85.44,152.48Z"></path></clipPath><clipPath id="clip-path-2"><rect class="cls-1" x="14.43" y="141.37" width="17.43" height="8.83" transform="translate(73.7 7.1) rotate(29.05)"></rect></clipPath><clipPath id="clip-path-3"><rect class="cls-1" x="44.84" y="142.66" width="17.43" height="8.83" transform="translate(4.46 -1.55) rotate(1.73)"></rect></clipPath><clipPath id="clip-path-4"><path class="cls-1" d="M279.45,246.82,257.79,83a1.55,1.55,0,0,1,1.36-1.73l4-.52A1.58,1.58,0,0,1,265,82.09L286.61,245.9a1.56,1.56,0,0,1-1.36,1.74l-4,.51A1.57,1.57,0,0,1,279.45,246.82Z"></path></clipPath><clipPath id="clip-path-5"><rect class="cls-1" x="229.85" y="11.48" width="38.92" height="26.46"></rect></clipPath><clipPath id="clip-path-6"><rect class="cls-1" x="229.85" y="11.48" width="38.92" height="26.46"></rect></clipPath></defs><title>1-3-01</title><g class="cls-2"><g id="Layer_1" data-name="Layer 1"><g class="cls-3"><rect class="cls-4" x="66.43" y="71.71" width="20.09" height="3.19" rx="1.59"></rect><circle class="cls-4" cx="86.12" cy="155.79" r="7.41"></circle><circle class="cls-4" cx="15.44" cy="155.79" r="7.41"></circle><path class="cls-4" d="M3.91,154.38c1.66-5.21,6.72-8.23,11.34-7.31a10,10,0,0,1,7.41,7.41Z"></path><path class="cls-4" d="M17.22,148.76H77.59a0,0,0,0,1,0,0v.75a5.81,5.81,0,0,1-5.81,5.81H17.22a0,0,0,0,1,0,0v-6.56A0,0,0,0,1,17.22,148.76Z"></path><path class="cls-4" d="M80.36,135.26h0a1.7,1.7,0,0,1,1.7,1.7v15.88a3.39,3.39,0,0,1-3.39,3.39h0a0,0,0,0,1,0,0V137a1.7,1.7,0,0,1,1.7-1.7Z" transform="translate(73.35 -20.54) rotate(26.46)"></path><g class="cls-5"><path class="cls-4" d="M85.44,152.48,75.85,74.22a.72.72,0,0,1,.57-.83l1.7-.26a.68.68,0,0,1,.75.64L88.47,152a.73.73,0,0,1-.58.83l-1.7.26A.68.68,0,0,1,85.44,152.48Z"></path><ellipse class="cls-6" cx="80.98" cy="103.78" rx="2.24" ry="30.22" transform="translate(-12.2 10.8) rotate(-7.1)"></ellipse></g><circle class="cls-4" cx="86.05" cy="73.3" r="1.59"></circle><path class="cls-7" d="M79.75,68.87a4.63,4.63,0,0,1,2.15,1.89,4.16,4.16,0,0,1,.54,1.7l-.64.14a4.65,4.65,0,0,1-4.92-2l-1.14-1.77A5.44,5.44,0,0,1,79.75,68.87Z"></path><path class="cls-8" d="M52.8,58.22a43.6,43.6,0,0,1,4.42,6.06A45,45,0,0,1,60,69.57,29.36,29.36,0,0,1,71.59,67.9a28.61,28.61,0,0,1,3.73.49l3.52,3.9C76.91,80.15,70.55,85.66,63.56,86s-11.63-4.62-12.39-5.44"></path><path class="cls-7" d="M46,145.7h5.23l3.9-15.11L49,129.7Q47.49,137.7,46,145.7Z"></path><path class="cls-7" d="M16.75,141.33l4.88,1.86L30.7,130.5l-5.44-3Z"></path><path class="cls-9" d="M3.1,162.62c0,2,93.27,2.8,93.34.73,0-1.12-27-3.61-53-3.37C25.76,160.15,3.08,161.62,3.1,162.62Z"></path><path class="cls-4" d="M43.83,89.92H61.34a98.08,98.08,0,0,1,1.27,23.54A97.62,97.62,0,0,1,58,137.25l-17.11-.12c1.72-8.53,3-14.93,3.49-17.52.13-.69.43-2.22.66-4.29.06-.52.11-1,.15-1.63.36-5-.23-7.91-.81-14.61C44.22,97,44,93.81,43.83,89.92Z"></path><path class="cls-10" d="M50.23,93.07q-3.46,14.42-6.92,28.82c.18-.28.44-.72.75-1.25,1.27-2.19,3.32-6.17,5.92-15.93.45-1.7,1-4,1.64-6.73.17-.81.34-1.65.5-2.53s.27-1.61.38-2.38Z"></path><path class="cls-4" d="M33.72,87.36,50.65,91.8a100.22,100.22,0,0,1-4.73,23.09,100.38,100.38,0,0,1-12.67,25.45l-15.34-8.7a102.17,102.17,0,0,0,8.84-15.42A53.79,53.79,0,0,0,29,110.7C30.65,106,30.82,103,32,96.37,32.32,94.27,32.89,91.16,33.72,87.36Z"></path><path class="cls-11" d="M30.68,96.35c.46-9.27,2.11-24.68,8.58-36.09,2.65-4.67,5.06-6.82,7.71-7,3.69-.29,6.71,3.27,8.16,5C64,68.71,64.9,88.49,65,96Z"></path><path class="cls-7" d="M83,70.51a3.08,3.08,0,0,1,.83,2.33l-4.35,1.74Q78.11,72.29,76.8,70a3.42,3.42,0,0,1,1.89-1.18,2.67,2.67,0,0,1,2.79,1A3,3,0,0,1,83,70.51Z"></path><path class="cls-12" d="M49.86,56.13,61.05,69.55A12.83,12.83,0,0,0,59.9,65c-1.62-3.45-3.7-3.63-6.15-7.51a9,9,0,0,0-2-2.39,8.34,8.34,0,0,0-2.39-1.37,8.23,8.23,0,0,0-4.43-.27l1.52,3.18Z"></path><path class="cls-13" d="M49,53.57l1.11-.14a2.74,2.74,0,0,1,1,.41c.43.3,1,.86.83,1.11,0,.06-.1.12-.28.14Z"></path><path class="cls-13" d="M51.59,55.09l.28-.14a24.19,24.19,0,0,1,5.71,5.94A23.81,23.81,0,0,1,60,65.6q-3.12-3.87-6.22-7.75Z"></path><path class="cls-14" d="M43.61,60.4c-5.23,5.94-6.62,14-3.5,20.37,4.19,8.51,14.52,9.88,20.66,9,8.21-1.13,15.21-7,18.31-15.3L76.3,70.24a21.4,21.4,0,0,0-10.82-.9,21,21,0,0,0-7.67,3c-.33-.67-.65-1.39-1-2.16s-.56-1.45-.79-2.13"></path><path class="cls-15" d="M44,59.29c-5.23,5.94-6.61,14-3.5,20.37,4.22,8.56,14.67,9.8,20.67,9C73.54,87.11,79,75.4,79.32,74.66l-2.5-4.85a18.9,18.9,0,0,0-18.61,1.42c-.33-.66-.65-1.38-1-2.15s-.56-1.45-.79-2.13"></path><circle class="cls-16" cx="47.52" cy="48.88" r="5.21"></circle><path class="cls-4" d="M52.3,48.13a.89.89,0,0,0,.88-1,5.91,5.91,0,0,0-1.67-3.15h0a5.9,5.9,0,0,0-9,7.52.89.89,0,0,0,1.37.12c1.55-.39,2.12-1,2.35-1.52A3.5,3.5,0,0,1,47,48.54a2.4,2.4,0,0,1,.65-.41Z"></path><path class="cls-4" d="M47.93,53.55a5.07,5.07,0,0,1-1.37-.42c.14-1.55.28-3.1.41-4.66L45.88,49l-.28,3.67c-.15-.09-.31-.19-.48-.31A5.24,5.24,0,0,1,44,51.21l-1.1.42a6.29,6.29,0,0,0,1.3,1.3,5.65,5.65,0,0,0,3.64,1.16,5.34,5.34,0,0,0,2.4-.75A5,5,0,0,1,47.93,53.55Z"></path><g id="White_Logo" data-name="White Logo"><path id="voi_plain_white" data-name="voi plain white" class="cls-17" d="M45.92,45.61l-.47,1.11h-.33l-.47-1.11H45l.31.75.32-.75Zm.73,1.12a.62.62,0,0,1-.31-.07.54.54,0,0,1-.3-.5.55.55,0,0,1,.08-.29.56.56,0,0,1,.22-.21.62.62,0,0,1,.31-.07.68.68,0,0,1,.32.07.53.53,0,0,1,.21.21.55.55,0,0,1,.08.29.61.61,0,0,1-.08.3.58.58,0,0,1-.21.2A.68.68,0,0,1,46.65,46.73Zm0-.26a.25.25,0,0,0,.2-.09.34.34,0,0,0,0-.44.27.27,0,0,0-.4,0,.34.34,0,0,0,0,.44A.25.25,0,0,0,46.65,46.47Zm.93-.86h.32v1.11h-.32Zm.16-.16a.2.2,0,0,1-.14-.05.17.17,0,0,1,0-.26.2.2,0,0,1,.14,0,.25.25,0,0,1,.15,0,.18.18,0,0,1,0,.12.24.24,0,0,1,0,.14.25.25,0,0,1-.15.05Zm.69,1.28a.25.25,0,0,1-.15,0,.21.21,0,0,1-.05-.15.2.2,0,0,1,.05-.14.2.2,0,0,1,.15-.06.2.2,0,0,1,.14.06.17.17,0,0,1,.06.14.22.22,0,0,1-.06.15A.24.24,0,0,1,48.43,46.73Z"></path></g><g class="cls-18"><path class="cls-19" d="M29.57,152.13l-.16.05c-2,.52-6.23.13-13.89-10.41a3.63,3.63,0,0,1,.86-1.54,3.55,3.55,0,0,1,1.3-.89,1.3,1.3,0,0,1,.68.24c.57.41.36,1,.88,1.56a2.32,2.32,0,0,0,1.55.6c.74.07,1-.17,1.43-.15.73,0,1.25.66,2.43,2.42,2.1,3.15,1.88,3.32,2.72,4.08A16.94,16.94,0,0,0,29.29,150a1.44,1.44,0,0,1,.65.77,1.29,1.29,0,0,1,0,.79Z"></path><path class="cls-20" d="M29.12,152.69a17.78,17.78,0,0,1-3.5-.73,30.12,30.12,0,0,1-5-2.38c-1.38-.74-1.83-1-5.66-3.14l-1.65-.91a1.94,1.94,0,0,1,.25-.94,9.8,9.8,0,0,1,.72-.81,3,3,0,0,0,.46-.83,2.88,2.88,0,0,1,1.19.53c1,.8.79,1.91,1.57,2.75s1.36.34,3,.87c.8.26.64.36,4.71,3.16a11.75,11.75,0,0,0,3.25,1.67c.39.12.71.2.94.25Z"></path><path class="cls-21" d="M28.41,152c-.79-.33-1.58-.68-2.38-1.05a76.57,76.57,0,0,1-11.93-6.9,3.53,3.53,0,0,1,.6-1.55,3.31,3.31,0,0,1,.66-.71c.33,0,.82-.07,1.43-.15a5.67,5.67,0,0,1,1-.11c.81.09,1.23,1.08,1.76,1.92a20.38,20.38,0,0,0,3,3,17.41,17.41,0,0,0,3.05,2.5c.95.47,1.89.69,2.42,1.48a10.74,10.74,0,0,0,.84,1.14c.21.24.39.43.51.55Z"></path><path class="cls-11" d="M16.18,144.7a1.29,1.29,0,0,1,1.19-.68,1.87,1.87,0,0,1,1.34.74,7.15,7.15,0,0,1,1,1.78c.48.93.53,1,.48,1.08-.3.48-3.14-.23-3.92-1.91A1.27,1.27,0,0,1,16.18,144.7Z"></path><path class="cls-21" d="M21.44,141.29c.58-.49,1.19-.72,1.5-.51a1,1,0,0,1,.25.27,1.63,1.63,0,0,1,.29.7,9.88,9.88,0,0,0,1.68,2.55,8.6,8.6,0,0,1,1.45,3A26.11,26.11,0,0,0,24.92,145a10.74,10.74,0,0,0-1.76-1.93c-.83-.55-1.73-.78-1.78-1.39A.8.8,0,0,1,21.44,141.29Z"></path><path class="cls-6" d="M29.91,151.52a1.21,1.21,0,0,1-.38.19c-.25.08-.36,0-.48.14a.53.53,0,0,0-.12.47c0,.11.07.35.19.37S29.48,152.5,29.91,151.52Z"></path><path class="cls-6" d="M17.68,139.34c.12.12-.12.81-.67,1-.24.07-.59.05-.63-.08S17.5,139.16,17.68,139.34Z"></path></g><g class="cls-22"><path class="cls-19" d="M62.17,149.76l-.12.12c-1.52,1.37-5.47,3-17.11-2.88a3.64,3.64,0,0,1,.05-1.76,3.6,3.6,0,0,1,.75-1.39,1.34,1.34,0,0,1,.71-.1c.69.1.79.74,1.5,1a2.36,2.36,0,0,0,1.65-.19c.69-.27.78-.59,1.21-.78.66-.31,1.41,0,3.26,1,3.31,1.83,3.2,2.08,4.29,2.36a18.54,18.54,0,0,0,2.57.79,1.45,1.45,0,0,1,.93.38,1.29,1.29,0,0,1,.33.72Z"></path><path class="cls-20" d="M62,150.46a18.57,18.57,0,0,1-3.44,1,30,30,0,0,1-5.55.19c-1.56,0-2.09-.06-6.47-.2l-1.88,0a1.93,1.93,0,0,1-.21-1,8.27,8.27,0,0,1,.27-1.06,3.44,3.44,0,0,0,0-.94,2.82,2.82,0,0,1,1.29-.08c1.29.25,1.59,1.34,2.66,1.73s1.36-.32,3.08-.61c.83-.14.74,0,5.64.64a11.6,11.6,0,0,0,3.65,0c.4-.07.73-.14.95-.2Z"></path><path class="cls-21" d="M61.1,150.2c-.85.07-1.72.12-2.6.16a76.66,76.66,0,0,1-13.76-.65,3.44,3.44,0,0,1,.07-2.59c.28-.17.7-.44,1.21-.79a4.27,4.27,0,0,1,.84-.56c.76-.3,1.59.39,2.44.89A20.35,20.35,0,0,0,53.39,148a17.91,17.91,0,0,0,3.86.82c1,0,2-.25,2.82.2a11.35,11.35,0,0,0,1.28.63c.29.12.54.2.7.26Z"></path><path class="cls-11" d="M46.87,149.3a1.28,1.28,0,0,1,.74-1.15,1.88,1.88,0,0,1,1.53,0,7.39,7.39,0,0,1,1.73,1.11c.86.61.93.64.92.74,0,.57-2.89,1.24-4.36.1A1.26,1.26,0,0,1,46.87,149.3Z"></path><path class="cls-21" d="M50,143.86c.29-.71.72-1.18,1.09-1.15a1.17,1.17,0,0,1,.35.13,1.74,1.74,0,0,1,.58.49,9.83,9.83,0,0,0,2.66,1.49,8.93,8.93,0,0,1,2.65,2c-1-.56-1.88-1-2.55-1.26a10.73,10.73,0,0,0-2.45-.89c-1-.11-1.9.09-2.22-.43A.61.61,0,0,1,50,143.86Z"></path><path class="cls-6" d="M62.19,149.06a1.26,1.26,0,0,1-.25.34c-.18.19-.3.2-.36.34a.58.58,0,0,0,.1.48c.07.1.24.28.35.24S62.26,150.13,62.19,149.06Z"></path><path class="cls-6" d="M45.74,143.85c.16.05.27.78-.16,1.17-.17.17-.49.32-.59.22S45.5,143.78,45.74,143.85Z"></path></g><path class="cls-9" d="M46.78,185c0,1.87,131.41,2.6,131.51.68.05-1-38.07-3.35-74.75-3.12C78.69,182.67,46.75,184,46.78,185Z"></path><polygon class="cls-23" points="122.79 159.99 128.06 160.07 125.16 148.41 119.89 148.32 122.79 159.99"></polygon><path class="cls-24" d="M91.91,116.62a13.15,13.15,0,0,0,1.15,6.06,14.78,14.78,0,0,0,4.33,5.19c4.14,3.45,6.49,3.46,9.66,5.62a20.41,20.41,0,0,1,7.24,9.36l2.09,12h17.48l-1.79-13.77a31,31,0,0,0-3.24-10.19,32.65,32.65,0,0,0-15.58-14.27"></path><path class="cls-12" d="M112.8,82.08a44.05,44.05,0,0,1,5.5,12.27,21.32,21.32,0,0,1,11.77,0,20.37,20.37,0,0,1,4.39,1.88l2.29,4.91c-3.46,6.82-10.38,10.79-17.19,10S108.72,105,108,104"></path><path class="cls-23" d="M139.88,95.85c.08.07,1.67,1.43,1.31,2.09s-1.64.28-1.83.24L136.51,101l-2.12-4.86a3.6,3.6,0,0,1,2.26-1.48A4,4,0,0,1,139.88,95.85Z"></path><path class="cls-25" d="M122.05,122.24l-5.34-4q-1.23,10.65-2.48,21.3l5.37,1.1a63,63,0,0,0,2.45-18.36Z"></path><path class="cls-23" d="M136.78,97.92c.92.8,2.1,2.1,1.58,2.9s-1.84.76-2.19.7l-3.78.65L130.66,97a6.35,6.35,0,0,1,3.29-.32A5.75,5.75,0,0,1,136.78,97.92Z"></path><path class="cls-19" d="M138.06,163.93l-.14.13c-1.43,1.32-5.24,3.07-16.48-2.26a3.57,3.57,0,0,1,0-1.69,3.66,3.66,0,0,1,.68-1.36,1.42,1.42,0,0,1,.68-.11c.67.08.78.69,1.47.9a2.28,2.28,0,0,0,1.58-.22c.65-.29.72-.59,1.12-.79.63-.31,1.36,0,3.16.9,3.23,1.66,3.13,1.9,4.18,2.15a17.19,17.19,0,0,0,2.48.67,1.43,1.43,0,0,1,.91.34,1.25,1.25,0,0,1,.34.68Z"></path><path class="cls-20" d="M137.92,164.62a17.82,17.82,0,0,1-3.27,1,30.09,30.09,0,0,1-5.31.34c-1.5,0-2,0-6.2,0h-1.81a1.93,1.93,0,0,1-.23-.91c0-.38.16-.56.23-1a3,3,0,0,0,0-.9,2.66,2.66,0,0,1,1.24-.12c1.24.2,1.56,1.24,2.6,1.58s1.29-.35,2.93-.67c.8-.16.71,0,5.42.45a9.18,9.18,0,0,0,3.5-.12,7.27,7.27,0,0,0,1-.35Z"></path><path class="cls-11" d="M137,164.4c-.81.08-1.64.16-2.48.22a73.53,73.53,0,0,1-13.21-.22,3.43,3.43,0,0,1-.23-1.58,3.53,3.53,0,0,1,.23-.91c.26-.17.66-.44,1.13-.79a5.08,5.08,0,0,1,.79-.56c.72-.3,1.54.33,2.37.79a20.07,20.07,0,0,0,3.95,1.13,17.17,17.17,0,0,0,3.72.68,5.32,5.32,0,0,1,2.71.11,4.59,4.59,0,0,0,1.25.56,3.51,3.51,0,0,0,.81.1Z"></path><rect class="cls-4" x="97.65" y="122.95" width="2.78" height="34.08" transform="translate(-56.64 68.09) rotate(-29.93)"></rect><line class="cls-26" x1="137.39" y1="110.35" x2="142.4" y2="110.35"></line><path class="cls-27" d="M162.28,94.12l-4.17,15.12a6,6,0,0,1-5.75,4.37h-4.29a6,6,0,0,1-6-6V94.12h.06"></path><path class="cls-28" d="M47.86,153a27,27,0,0,1,53.22,6.17"></path><path class="cls-28" d="M134.5,159.18a27.59,27.59,0,0,1,27.59-27.59"></path><polygon class="cls-4" points="107.15 148.91 138.92 120.8 140.68 124.46 109.22 151.99 107.15 148.91"></polygon><path class="cls-4" d="M74.51,142.39a16.79,16.79,0,1,1-16.78,16.79,16.81,16.81,0,0,1,16.78-16.79m0-8A24.79,24.79,0,1,0,99.3,159.18a24.79,24.79,0,0,0-24.79-24.79Z"></path><path class="cls-4" d="M162.09,142.39a16.79,16.79,0,1,1-16.79,16.79,16.8,16.8,0,0,1,16.79-16.79m0-8a24.79,24.79,0,1,0,24.78,24.79,24.79,24.79,0,0,0-24.78-24.79Z"></path><path class="cls-4" d="M77.16,126.28l2.3,2.69a5.79,5.79,0,0,0,7.35,1.23L92,127.14a1.76,1.76,0,0,1,.89-.25h9.67a1.76,1.76,0,0,0,1.76-1.76h0a1.76,1.76,0,0,0-1.76-1.76h-24A1.76,1.76,0,0,0,77.16,126.28Z"></path><path class="cls-4" d="M88.41,139a24.77,24.77,0,0,0-37.83,14.28L74,159.93Z"></path><polygon class="cls-4" points="103.96 145.72 113.27 145.72 107.55 149.71 103.96 145.72"></polygon><path class="cls-4" d="M137.3,159.08h25.56l-14.23-20.71S140.24,145.39,137.3,159.08Z"></path><circle class="cls-29" cx="140.99" cy="96.22" r="3.38"></circle><line class="cls-30" x1="111.51" y1="159.19" x2="124.63" y2="166.67"></line><rect class="cls-4" x="123.49" y="164.64" width="10.65" height="3.5" rx="1.75"></rect><polygon class="cls-4" points="106.74 158.51 92.55 134.46 97.55 131.66 111.73 155.71 106.74 158.51"></polygon><rect class="cls-4" x="90.37" y="130.61" width="8.18" height="2.72" rx="1.36" transform="matrix(0.87, -0.5, 0.5, 0.87, -53.33, 64.91)"></rect><path class="cls-6" d="M116.27,152.79a6,6,0,0,0-5.85-2.19l-36.79,6.16a2.81,2.81,0,0,0-2.27,3.12,2.88,2.88,0,0,0,2.89,2.46h37.08a6.08,6.08,0,0,0,6.13-5.68A5.91,5.91,0,0,0,116.27,152.79Z"></path><path class="cls-6" d="M163.65,158.8a2.41,2.41,0,0,0,.87-3.29l-27.13-46a2.39,2.39,0,0,0-3.26-.88h0a2.4,2.4,0,0,0-.88,3.26l6.59,11.44-32.29,28.62,7.9,8.92,30.46-27L160.4,158a2.41,2.41,0,0,0,3.25.84Z"></path><circle class="cls-4" cx="110.62" cy="159.18" r="7.05"></circle><line class="cls-31" x1="140.41" y1="96.22" x2="137.95" y2="96.22"></line><g id="White_Logo-2" data-name="White Logo"><path id="voi_plain_white-2" data-name="voi plain white" class="cls-17" d="M127.31,139.07l2.13,6.56L128,146.87l-6.18-3.06,1.44-1.24,4.16,2.12L126,140.23Zm7.39,2.12a3.77,3.77,0,0,1-1.64.86,3.07,3.07,0,0,1-1.7-.06,3.2,3.2,0,0,1-1.45-1,3.26,3.26,0,0,1-.77-1.57,3.18,3.18,0,0,1,.19-1.7,4.08,4.08,0,0,1,2.72-2.36,3.17,3.17,0,0,1,1.7.07A3.44,3.44,0,0,1,136,138a3.14,3.14,0,0,1-.18,1.69A3.81,3.81,0,0,1,134.7,141.19Zm-1-1.15a1.52,1.52,0,0,0,.57-1.12,1.78,1.78,0,0,0-.49-1.27,1.76,1.76,0,0,0-1.19-.67,1.49,1.49,0,0,0-1.19.4,1.57,1.57,0,0,0-.58,1.12,2,2,0,0,0,1.68,1.95A1.54,1.54,0,0,0,133.71,140Zm.81-7.21,1.39-1.2,4.16,4.8-1.39,1.21Zm.09-1.28a1.17,1.17,0,0,1-.82.32.93.93,0,0,1-.72-.35,1,1,0,0,1-.24-.76,1.18,1.18,0,0,1,.44-.76,1.12,1.12,0,0,1,.81-.33.9.9,0,0,1,.7.33,1,1,0,0,1,.26.78,1.15,1.15,0,0,1-.43.77Zm7.78,3a1.07,1.07,0,0,1-.83.28,1.14,1.14,0,0,1-.8-.41,1.07,1.07,0,0,1-.28-.84,1.14,1.14,0,0,1,.41-.77,1.12,1.12,0,0,1,.82-.29,1.07,1.07,0,0,1,.79.4,1.15,1.15,0,0,1,.29.85A1.11,1.11,0,0,1,142.39,134.54Z"></path></g><rect class="cls-4" x="82.18" y="165.18" width="10.65" height="3.5" rx="1.75" transform="translate(135.09 -15.44) rotate(42.29)"></rect><path class="cls-30" d="M84.27,164.21l26.53-3.75"></path><polygon class="cls-23" points="88.25 157.03 91.2 161.38 100.32 151.49 97.36 147.13 88.25 157.03"></polygon><path class="cls-24" d="M111.67,113.45a29.42,29.42,0,0,1,7.64,24.94,42.23,42.23,0,0,1-5.48,9.23,42.73,42.73,0,0,1-9.51,8.95l-1,1.72L89.75,147.48A34.57,34.57,0,0,0,97.1,142c2.32-2.27,3.51-3.47,4-5.48,1.07-4.08-1.55-7.86-2-8.51-2.25-3.12-4.38-2.75-6.06-5.33-1-1.61-1.92-4.39-.57-9.38Z"></path><path class="cls-12" d="M83.78,117.81c.67-4.65,5-33.83,17-40.42a9.35,9.35,0,0,1,6.28-1.31c5.92,1.24,8.65,10.09,9.1,15.5A23.61,23.61,0,0,1,114.62,102L124,120.9Z"></path><path class="cls-25" d="M99.67,82.56c-1.75,2.62-7.09,11.3-4.94,21.81.57,2.74,1.36,6.62,4.57,9.41,6.55,5.7,18.48,3,25.6-2.32a25.2,25.2,0,0,0,7.48-9.25l-2.13-3.63a17.19,17.19,0,0,0-10.82-2.52,16.94,16.94,0,0,0-8.17,3.21,8.57,8.57,0,0,0-.42-6.53"></path><path class="cls-32" d="M100.07,81c-1.36,2.09-8.66,13.74-4.27,24.75a14.25,14.25,0,0,0,4.07,6.06c6.71,5.62,18.38,3.11,25.42-1.9a25.09,25.09,0,0,0,7-7.67L130.64,97a17.12,17.12,0,0,0-10.82-2.52,16.89,16.89,0,0,0-8.16,3.21,8.66,8.66,0,0,0-.43-6.54"></path><path class="cls-19" d="M98.47,171.11h-.21c-2.17.07-6.66-1.23-12.26-13.91a3.88,3.88,0,0,1,2.79-2.08,1.38,1.38,0,0,1,.65.4c.51.55.16,1.15.58,1.83a2.57,2.57,0,0,0,1.5,1c.76.23,1,0,1.53.16.76.19,1.16,1,2,3.06,1.51,3.75,1.25,3.88,2,4.85a18,18,0,0,0,1.61,2.38,1.58,1.58,0,0,1,.51.95,1.4,1.4,0,0,1-.21.82Z"></path><path class="cls-20" d="M97.85,171.6a20.69,20.69,0,0,1-3.5-1.53,32,32,0,0,1-4.73-3.58c-1.28-1.08-1.69-1.46-5.24-4.52l-1.52-1.32a1.89,1.89,0,0,1,.47-.92,7,7,0,0,1,.93-.7,3.24,3.24,0,0,0,.65-.76,3.06,3.06,0,0,1,1.14.81c.9,1.06.41,2.17,1,3.22s1.35.65,3,1.57c.78.45.59.51,4.24,4.33a10.26,10.26,0,0,0,3,2.45,7.45,7.45,0,0,0,1.13.46Z"></path><path class="cls-11" d="M97.25,170.75c-.75-.52-1.5-1.06-2.26-1.62a82.41,82.41,0,0,1-11-9.81,3.77,3.77,0,0,1,1-1.5,4.08,4.08,0,0,1,.85-.6c.35.05.88.11,1.53.16a5.22,5.22,0,0,1,1.08.1c.83.27,1,1.4,1.42,2.39a22.26,22.26,0,0,0,2.51,3.83A18.6,18.6,0,0,0,95,167c.89.69,1.83,1.13,2.21,2.07a5,5,0,0,0,.64,1.38,3.84,3.84,0,0,0,.61.67Z"></path><circle class="cls-19" cx="101.92" cy="75.86" r="1.78"></circle><circle class="cls-19" cx="100.57" cy="74.26" r="1.78"></circle><circle class="cls-33" cx="105.72" cy="72.58" r="4.32"></circle><path class="cls-4" d="M109.68,72a.74.74,0,0,0,.74-.86A5,5,0,0,0,109,68.48h0a4.89,4.89,0,0,0-7.48,6.23.75.75,0,0,0,1.14.11c1.27-.33,1.75-.84,1.94-1.27a3,3,0,0,1,.68-1.25,1.93,1.93,0,0,1,.54-.34Z"></path><path class="cls-4" d="M106.06,76.45a4,4,0,0,1-1.13-.34l.34-3.87-.91.46-.23,3c-.13-.07-.26-.16-.4-.25a4.62,4.62,0,0,1-1-1l-.91.34a5.43,5.43,0,0,0,1.08,1.08,4.66,4.66,0,0,0,3,1,4.39,4.39,0,0,0,2-.63A4,4,0,0,1,106.06,76.45Z"></path><g id="White_Logo-3" data-name="White Logo"><path id="voi_plain_white-3" data-name="voi plain white" class="cls-17" d="M104.39,69.87l-.39.92h-.27l-.39-.92h.27l.26.62.26-.62Zm.61.93a.53.53,0,0,1-.26-.06.42.42,0,0,1-.18-.17.4.4,0,0,1-.07-.24.41.41,0,0,1,.07-.25.42.42,0,0,1,.18-.17.53.53,0,0,1,.26-.06.55.55,0,0,1,.26.06.47.47,0,0,1,.25.42.48.48,0,0,1-.07.24.49.49,0,0,1-.18.17A.55.55,0,0,1,105,70.8Zm0-.22a.22.22,0,0,0,.17-.07.26.26,0,0,0,.06-.18.29.29,0,0,0-.06-.19.22.22,0,0,0-.17-.07.21.21,0,0,0-.17.07.25.25,0,0,0-.07.19.23.23,0,0,0,.07.18A.21.21,0,0,0,105,70.58Zm.77-.71H106v.92h-.27Zm.13-.13a.17.17,0,0,1-.12,0,.12.12,0,0,1,0-.1.15.15,0,0,1,0-.11.2.2,0,0,1,.24,0,.12.12,0,0,1,0,.1.16.16,0,0,1,0,.11.17.17,0,0,1-.12,0Zm.57,1.06a.18.18,0,0,1-.12,0,.13.13,0,0,1,0-.12.16.16,0,0,1,0-.12.19.19,0,0,1,.12,0,.16.16,0,0,1,.12,0,.17.17,0,0,1-.12.29Z"></path></g><path class="cls-34" d="M110.47,73.46c-.06.38-.34,1.05-.92,1.11a1.18,1.18,0,0,1-1.17-1.17,1.09,1.09,0,0,1,.49-.92,1.32,1.32,0,0,1,.74-.12,1,1,0,0,1,.62.12C110.59,72.75,110.49,73.38,110.47,73.46Z"></path><rect class="cls-34" x="105.06" y="72.48" width="3.81" height="0.49"></rect></g><rect class="cls-4" x="242.51" y="77.82" width="36.46" height="6.67" rx="1.03"></rect><circle class="cls-4" cx="284.06" cy="253.71" r="15.49"></circle><circle class="cls-4" cx="131.11" cy="253.71" r="15.49"></circle><path class="cls-4" d="M111.5,250.77c3.47-10.9,14.07-17.22,23.72-15.3,7.37,1.47,13.41,7.56,15.49,15.49Z"></path><path class="cls-4" d="M138.2,239H262.26a1.11,1.11,0,0,1,1.11,1.11v5.69a6.93,6.93,0,0,1-6.93,6.93H138.2a1.11,1.11,0,0,1-1.11-1.11v-11.5A1.11,1.11,0,0,1,138.2,239Z"></path><path class="cls-4" d="M269.11,210.75h0a3.55,3.55,0,0,1,3.55,3.55v33.52a7.09,7.09,0,0,1-7.09,7.09h0a0,0,0,0,1,0,0V214.3a3.55,3.55,0,0,1,3.55-3.55Z" transform="translate(131.91 -95.51) rotate(26.46)"></path><g class="cls-35"><path class="cls-4" d="M279.45,246.82,257.79,83a1.55,1.55,0,0,1,1.36-1.73l4-.52A1.58,1.58,0,0,1,265,82.09L286.61,245.9a1.56,1.56,0,0,1-1.36,1.74l-4,.51A1.57,1.57,0,0,1,279.45,246.82Z"></path><path class="cls-6" d="M289.89,188.61H258.52q-4.24-44-8.5-87.91h28.76Q284.35,144.65,289.89,188.61Z"></path></g><ellipse class="cls-4" cx="278.11" cy="81.16" rx="2.89" ry="3.33"></ellipse><ellipse class="cls-4" cx="243.48" cy="81.16" rx="2.89" ry="3.33"></ellipse><path class="cls-9" d="M105.64,268.84c0,2.62,51.29,4.48,88.69,4.67,45.11.24,103.7-1.78,103.75-4.64S243,262.4,189.82,263C150.58,263.49,105.61,266.39,105.64,268.84Z"></path><path class="cls-36" d="M146,83.64a31.16,31.16,0,0,1,17.34,16.53,48.69,48.69,0,0,1,19.57-15A46.77,46.77,0,0,1,193,82.23l9.62,5.21a37.75,37.75,0,0,1,.54,8.94c-.81,13.92-9.74,32.32-26.28,37.12-17.4,5.05-39.17-6.13-46.88-27.91"></path><path class="cls-23" d="M198.57,77.68c2.93-1.84,4-2,4.88-1.62,1.5.6,2,2.56,2.16,3.25.4,0,3.08.23,3.8,1.9.3.69.26,1.65-1.36,4.33A32.85,32.85,0,0,1,202.9,92l-11-9A39.12,39.12,0,0,1,198.57,77.68Z"></path><polygon class="cls-23" points="184.97 264.24 195.17 262.3 187.96 235.88 176.5 236.84 184.97 264.24"></polygon><polygon class="cls-23" points="114.76 267.77 125.62 268.28 127.91 239.26 116.96 239.94 114.76 267.77"></polygon><path class="cls-9" d="M91,282.09c0,3.19,35.94,5.54,62.14,5.84,31.61.36,72.66-2,72.69-5.5s-38.62-8-75.86-7.3C122.5,275.64,91,279.1,91,282.09Z"></path><path class="cls-37" d="M139.35,150.33l35.48-7q8.26,30,17.62,60.76,4,13.15,8.09,26.06l-35.43,16.26q-6.36-22.53-12.44-45.14Q145.83,175.88,139.35,150.33Z"></path><path class="cls-38" d="M150.07,147.86l11.1.54q-3.27,12.28-7.31,25.2-2.27,7.2-4.61,14.09Z"></path><path class="cls-37" d="M115.11,144.07l42,1.08c-.78,3.61-1.94,9.06-3.25,15.72-3.61,18.36-5.44,31.19-7.05,41.46-1.72,11-4.4,27-8.4,46.87H99.7q2.88-17.56,5.42-35.76,1-7.09,1.9-14.09Q111.07,171.71,115.11,144.07Z"></path><path class="cls-36" d="M103.92,157.57c3.76-21.39,8.11-39,11.76-52.25,5.66-20.45,10.55-33.44,20.87-36.31a13.65,13.65,0,0,1,4.88-.54c15,1.1,23.91,27.3,30.89,47.69a249.08,249.08,0,0,1,10.26,41.41Z"></path><rect class="cls-39" x="202.59" y="69.91" width="9.08" height="18.97" rx="4.54" transform="translate(75.92 -99.47) rotate(32.77)"></rect><path class="cls-40" d="M121.61,93.67a80.26,80.26,0,0,0,80.21-.54,60.35,60.35,0,0,1-10,25.47c-2.6,3.74-8.3,12-18.42,17.07-12.56,6.34-36.27,10.1-48.5-4.88C117,121.19,116.23,106.74,121.61,93.67Z"></path><path class="cls-41" d="M209.41,81.75a2.81,2.81,0,0,1,.27,1.35A3.66,3.66,0,0,1,211,84.73a3.72,3.72,0,0,1,0,2.71A4.27,4.27,0,0,1,210,89.06a40.35,40.35,0,0,1-6.64,4.75l-8-8.36a14.65,14.65,0,0,1,.94-1.79A16.2,16.2,0,0,1,202.63,78c1.19-.61,5.24-2.71,7.05-1.35a1.3,1.3,0,0,1,.54.81c.1.89-1.17,1.94-3.25,2.71A3.35,3.35,0,0,1,209.41,81.75Z"></path><path class="cls-42" d="M126.83,82.47c-10.17,13.91-11.63,31.29-3.79,42.89,11.16,16.53,35.91,13.49,49,8.44,25.61-9.92,31.1-37.83,31.42-39.59q-4-4.53-7.91-9a42.29,42.29,0,0,0-24.24,2.38A41.77,41.77,0,0,0,156.46,98c-.59-1.67-1.16-3.36-1.73-5.09-.37-1.14-.73-2.27-1.07-3.38"></path><path class="cls-37" d="M113.14,261.91a1.28,1.28,0,0,0-.69.66c-.34.69.08,1.23.18,2.26a5.87,5.87,0,0,1-.5,2.7c-.38,1-.7,1.17-1.17,2.23a9.61,9.61,0,0,0-.73,2.47c1.4.43,3.5,1,6.06,1.7,8,2,14.71,3.76,22.62,3.48a49.68,49.68,0,0,0,13.25-2.34,2.76,2.76,0,0,0-.19-2.26c-.35-.52-.84-.63-1.78-.94a34.61,34.61,0,0,1-4.82-2c-.85-.46-.86-.56-2-1.17s-2-1-2.46-1.17c-4.86-2.1-4.54-1.75-5.59-2.37-2.31-1.34-3-2.53-4.24-2.56a8,8,0,0,1-2.37-.39l-.33-.11a3.29,3.29,0,0,0-2.46-1.18c-.27,0-.92,0-1.14.43s.22,1.42,1.31,2.28c-.24.19-.59.46-1,.77a11.19,11.19,0,0,1-3,1.75,6.12,6.12,0,0,1-5.84-1.47c-.73-.84-1.52-2.48-2.43-2.75A1.1,1.1,0,0,0,113.14,261.91Z"></path><path class="cls-43" d="M130.26,263.48l2.49-.41.19,2.15,2.26-.63-.25,1.68,2.49-.4,0,1.58,2.49-.74,0,1.69,2.49-.52.65,1.59"></path><path class="cls-44" d="M124.25,264.94a2.52,2.52,0,0,0,.54,1.48,3.47,3.47,0,0,0,2.69.95c1.36,0,1.94-.58,2.48-.18s.19.77.65,1.37a3,3,0,0,0,2,.94c1.53.2,2.19-.64,2.94-.17.54.34.27.83.87,1.37a3.78,3.78,0,0,0,2.93.51,20.9,20.9,0,0,1,2.26-.41c.85,0,1.64,0,1.81,0a4.15,4.15,0,0,0,2.38-.75,4.19,4.19,0,0,0-1.12-.7,4.25,4.25,0,0,0-.89-.24,29.54,29.54,0,0,1-4.26-1.66c-2.37-.88-3.56-1.32-4.26-1.66-3.91-1.94-5.18-4.31-6.92-3.74a11.5,11.5,0,0,0-1.6,1.09Z"></path><path class="cls-45" d="M107.87,277.83c.46,1.38,2,1.9,3.34,2.32.91.3,1.85.48,7.89.6l1.35,0c3.34.07,4.62.18,7.78.26l2,0,.26-1.58,1.21,1.5c.67.08,1.69.19,2.93.28a38.22,38.22,0,0,0,7.67-.08,23.48,23.48,0,0,0,3.4-.61A15.6,15.6,0,0,0,151,278.2c1.26-.93,2.12-1.56,2.31-2.66.23-1.36-.63-2.9-1.19-2.84s-.87,1.9-1,2.46a1.5,1.5,0,0,1,.09,1c-.26.82-1.41,1-2.39,1.42-2.33.89-3.32,1.59-4,1.84-2.49.95-12.08.24-24.3-3.85,0,0-5.3-2.44-10.13-1.55a3.24,3.24,0,0,0-2,1.09A3,3,0,0,0,107.87,277.83Z"></path><path class="cls-46" d="M107.91,275.57a1.43,1.43,0,0,0,.65,1.37c.68.29,1.24-.65,2-.41s.73,1.11,1.33,1.15.73-.66,1.37-.65c.3,0,.43.16,1.11.7,1,.75,1.45,1.13,1.79,1.16.83.09,1-.73,1.82-.64s.83,1.1,1.78,1.39c1.15.35,2.41-.78,2.49-.86.82-.74.6-1.3,1.16-1.55.21-.1.87-.31,4,1.88,1.53,1.06,2.36,1.79,2.79,1.52.24-.15.27-.56.24-.9l1.11,1.38,1.12,0a24.78,24.78,0,0,0,3.06-.28c3.13-.37,5.12.73,6.32-.11a2.5,2.5,0,0,1,.91-.43,2.93,2.93,0,0,1,1.35,0c1.21.26,2.09-1.05,4.33-2.17s3.59-1,3.65-1.74c0-.42-.48-.78-.66-.91-1.43-1-3.47-.42-4.74-.09-4.94,1.29-9.46,2.47-12.66.88a12.67,12.67,0,0,0-2-.94c-1.85-.63-2.91-.41-4.73-.54a23.7,23.7,0,0,1-7-1.71c-1.58-.68-2.93-1.52-3.6-1-.44.36-.09.94-.47,1.34-1.14,1.2-5.7-2.23-7-1-.22.2-.42.62-.26,1.57A1.8,1.8,0,0,0,107.91,275.57Z"></path><path class="cls-37" d="M181,261.67a1.32,1.32,0,0,0-.34.9c0,.77.61,1.07,1.15,2a5.73,5.73,0,0,1,.71,2.65c.1,1.08-.11,1.36-.08,2.52a9.26,9.26,0,0,0,.41,2.54c1.45-.22,3.6-.58,6.2-1.1,8.06-1.61,14.89-3,21.89-6.66a49.72,49.72,0,0,0,10.93-7.85,2.81,2.81,0,0,0-1.15-2c-.54-.31-1-.2-2-.07a33.24,33.24,0,0,1-5.21.28c-1,0-1-.13-2.32-.19s-2.18,0-2.73,0c-5.29.21-4.85.39-6.07.29-2.66-.21-3.8-1-4.93-.47a7.51,7.51,0,0,1-2.29.68l-.36,0a3.28,3.28,0,0,0-2.72,0c-.24.13-.82.44-.84.88s.81,1.19,2.17,1.49c-.14.28-.34.67-.6,1.14a11,11,0,0,1-1.91,2.86c-1.36,1.18-3.92,2.06-5.9,1.21-1-.44-2.46-1.58-3.39-1.43A1.14,1.14,0,0,0,181,261.67Z"></path><path class="cls-43" d="M197.11,255.67l2.07-1.44,1.1,1.85,1.77-1.55.5,1.63,2.07-1.44.65,1.44,1.93-1.76.7,1.54,2-1.54,1.27,1.15"></path><path class="cls-44" d="M192.33,259.59a2.51,2.51,0,0,0,1.12,1.1,3.47,3.47,0,0,0,2.84-.3c1.22-.6,1.5-1.37,2.16-1.24s.5.61,1.18,1a3,3,0,0,0,2.22,0c1.47-.5,1.7-1.53,2.58-1.43.64.07.6.63,1.38.86a3.83,3.83,0,0,0,2.86-.81c1-.61.89-.87,1.86-1.35.77-.38,1.49-.69,1.64-.75a4.15,4.15,0,0,0,1.83-1.71,3.86,3.86,0,0,0-1.31-.14,3.47,3.47,0,0,0-.91.17,30.67,30.67,0,0,1-4.56.34c-2.52.24-3.78.36-4.55.35-4.38-.05-6.54-1.64-7.87-.37a12.33,12.33,0,0,0-1,1.68Z"></path><path class="cls-45" d="M183.15,278.31c1,1,2.66.82,4,.64,1-.12,1.87-.37,7.37-2.87l1.23-.57c3.05-1.37,4.25-1.83,7.13-3.13l1.85-.84-.45-1.54,1.73.82c.65-.21,1.61-.55,2.77-1a38.78,38.78,0,0,0,6.88-3.4,22.75,22.75,0,0,0,2.8-2,15.41,15.41,0,0,0,3.68-4.42c.74-1.38,1.24-2.32.93-3.4-.38-1.32-1.82-2.33-2.3-2s0,2.1.21,2.64a1.47,1.47,0,0,1,.52.87c.13.86-.82,1.56-1.54,2.32-1.71,1.81-2.3,2.87-2.79,3.39-1.83,1.93-10.79,5.45-23.57,7.05,0,0-5.84.1-9.8,3a3.24,3.24,0,0,0-1.38,1.87A3,3,0,0,0,183.15,278.31Z"></path><path class="cls-46" d="M182.21,276.26a1.41,1.41,0,0,0,1.18.95c.73,0,.83-1.13,1.66-1.26s1.13.69,1.7.46.37-.91.95-1.18c.27-.12.45,0,1.3.15a5.44,5.44,0,0,0,2.11.28c.79-.29.63-1.12,1.36-1.37s1.24.63,2.21.48c1.19-.19,1.84-1.74,1.88-1.85.41-1,0-1.43.37-1.91.15-.17.65-.65,4.44-.05,1.85.3,2.91.6,3.18.16.15-.24,0-.61-.17-.91L206,271c.24-.1.6-.26,1-.47a22.67,22.67,0,0,0,2.62-1.57c2.67-1.69,4.94-1.56,5.66-2.83a2.36,2.36,0,0,1,.63-.79,2.77,2.77,0,0,1,1.23-.56c1.2-.3,1.43-1.86,3-3.84s2.79-2.48,2.53-3.14c-.15-.4-.77-.51-1-.54-1.72-.29-3.31,1.12-4.31,2-3.89,3.3-7.45,6.33-11,6.28a12.77,12.77,0,0,0-2.22,0c-1.94.23-2.8.89-4.5,1.56a23.66,23.66,0,0,1-7,1.48c-1.72.07-3.29-.1-3.66.68-.24.52.33.89.16,1.42-.51,1.57-6.1.45-6.74,2.09-.11.27-.11.74.45,1.53A1.78,1.78,0,0,0,182.21,276.26Z"></path><circle class="cls-33" cx="142.83" cy="59.28" r="9.52"></circle><circle class="cls-47" cx="141.83" cy="64.66" r="2.35"></circle><path class="cls-48" d="M149.26,51a9.83,9.83,0,1,0-8,16.63,10.61,10.61,0,0,0,1.41-5.2,10.72,10.72,0,0,0,6.7-9.94A10.56,10.56,0,0,0,149.26,51Z"></path><path class="cls-48" d="M142.59,59.87A17.73,17.73,0,0,1,141.5,68a17,17,0,0,1-2.44,4.33l-9.75-.27a20.06,20.06,0,0,0,3.52-6.77,19.73,19.73,0,0,0,.81-6Z"></path><path class="cls-4" d="M151.55,57.91a1.63,1.63,0,0,0,1.62-1.9,10.87,10.87,0,0,0-3.06-5.76h0A10.76,10.76,0,0,0,133.66,64a1.63,1.63,0,0,0,2.5.23c2.82-.72,3.87-1.84,4.29-2.79a6.31,6.31,0,0,1,1.5-2.75,4,4,0,0,1,1.18-.75Z"></path><path class="cls-4" d="M143.58,67.8a8.94,8.94,0,0,1-2.51-.75q.38-4.26.76-8.52l-2,1c-.17,2.24-.33,4.48-.5,6.72-.28-.17-.58-.36-.88-.58a9.84,9.84,0,0,1-2.13-2.13l-2,.75a11,11,0,0,0,2.38,2.39,10.26,10.26,0,0,0,6.64,2.12,9.61,9.61,0,0,0,4.38-1.37A9,9,0,0,1,143.58,67.8Z"></path><g id="White_Logo-4" data-name="White Logo"><path id="voi_plain_white-4" data-name="voi plain white" class="cls-17" d="M139.89,53.3l-.85,2h-.61l-.85-2h.61l.56,1.38.58-1.38Zm1.35,2.06a1.21,1.21,0,0,1-.58-.14,1,1,0,0,1-.4-.37,1.11,1.11,0,0,1,0-1.08,1,1,0,0,1,.4-.37,1.25,1.25,0,0,1,1.15,0,1,1,0,0,1,.4.37,1.11,1.11,0,0,1,0,1.08,1,1,0,0,1-.4.37A1.2,1.2,0,0,1,141.24,55.36Zm0-.49a.5.5,0,0,0,.37-.15.67.67,0,0,0,0-.82.5.5,0,0,0-.37-.15.52.52,0,0,0-.38.15.67.67,0,0,0,0,.82A.52.52,0,0,0,141.24,54.87Zm1.7-1.57h.59v2h-.59Zm.29-.29a.4.4,0,0,1-.27-.09.35.35,0,0,1-.1-.24.33.33,0,0,1,.1-.23.41.41,0,0,1,.27-.1.39.39,0,0,1,.26.09.29.29,0,0,1,.1.23.28.28,0,0,1-.1.24.35.35,0,0,1-.26.1Zm1.25,2.35a.38.38,0,0,1-.37-.37.37.37,0,0,1,.11-.27.39.39,0,0,1,.52,0,.37.37,0,0,1,.11.27.38.38,0,0,1-.37.37Z"></path></g><path class="cls-49" d="M223.37,68.76a23,23,0,0,0,15.21-3.11c10.81-6.8,10.57-20.39,10.55-21.09"></path><g id="Coral_Logo" data-name="Coral Logo"><g class="cls-50"><g class="cls-51"><path class="cls-52" d="M259.6,11.48l-11,26.07h-7.8l-11-26.07h7.8l7.22,17.74,7.46-17.74Zm4.46,26.46a4.52,4.52,0,0,1-3.34-1.36,4.62,4.62,0,0,1-1.36-3.39,4.45,4.45,0,0,1,1.36-3.37,5,5,0,0,1,6.69,0,4.44,4.44,0,0,1,1.35,3.37,4.63,4.63,0,0,1-4.7,4.75Z"></path></g></g></g></g></g></svg> 